<mxfile host="app.diagrams.net" modified="2023-05-03T09:22:02.498Z" agent="Mozilla/5.0 (Windows NT 10.0; Win64; x64) AppleWebKit/537.36 (KHTML, like Gecko) Chrome/112.0.0.0 Safari/537.36" etag="lmhRUWpYVYE7sTxKZXij" version="21.2.6" type="device">
  <diagram name="Page-1" id="efa7a0a1-bf9b-a30e-e6df-94a7791c09e9">
    <mxGraphModel dx="2180" dy="608" grid="1" gridSize="10" guides="1" tooltips="1" connect="1" arrows="1" fold="1" page="1" pageScale="1" pageWidth="826" pageHeight="1169" background="none" math="0" shadow="0">
      <root>
        <mxCell id="0" />
        <mxCell id="1" parent="0" />
        <mxCell id="iLUi43Cnm-gBH9znqvVO-114" value="" style="strokeColor=#dddddd;shadow=1;strokeWidth=1;rounded=1;absoluteArcSize=1;arcSize=2;" vertex="1" parent="1">
          <mxGeometry x="-90" y="480" width="170" height="60" as="geometry" />
        </mxCell>
        <mxCell id="iLUi43Cnm-gBH9znqvVO-115" value="&lt;font color=&quot;#000000&quot;&gt;Microcontrollore&lt;/font&gt;&lt;br&gt;Arduino Nano" style="editableCssRules=.*;html=1;fontColor=#999999;shape=image;verticalLabelPosition=middle;labelBackgroundColor=#ffffff;verticalAlign=middle;labelPosition=right;align=left;spacingLeft=20;part=1;points=[];imageAspect=0;image=data:image/svg+xml,PHN2ZyB4bWxucz0iaHR0cDovL3d3dy53My5vcmcvMjAwMC9zdmciIHhtbG5zOnY9Imh0dHBzOi8vdmVjdGEuaW8vbmFubyIgd2lkdGg9IjIwIiBoZWlnaHQ9IjIwIiB2aWV3Qm94PSIwIDAgMjAgMjAiPiYjeGE7CTxzdHlsZSB0eXBlPSJ0ZXh0L2NzcyI+JiN4YTsJLnN0MHtmaWxsOiM0Mjg1ZjQ7fSYjeGE7CS5zdDF7ZmlsbDojNjY5ZGY2O30mI3hhOwkuc3Qye2ZpbGw6I2FlY2JmYTt9JiN4YTsJPC9zdHlsZT4mI3hhOwk8cGF0aCBjbGFzcz0ic3QyIiBkPSJNNyA3aDZ2Nkg3eiIvPiYjeGE7CTxwYXRoIGNsYXNzPSJzdDEiIGQ9Ik05IDBoMnY0SDl6TTUgMGgydjRINXptOCAwaDJ2NGgtMnoiLz4mI3hhOwk8cGF0aCBjbGFzcz0ic3QwIiBkPSJNOSAxNmgydjRIOXptLTQgMGgydjRINXptOCAwaDJ2NGgtMnptMy01VjloNHYyem0wIDR2LTJoNHYyem0wLThWNWg0djJ6Ii8+JiN4YTsJPHBhdGggY2xhc3M9InN0MSIgZD0iTTAgMTFWOWg0djJ6bTAgNHYtMmg0djJ6bTAtOFY1aDR2MnoiLz4mI3hhOwk8cGF0aCBjbGFzcz0ic3QyIiBkPSJNMyAzdjE0aDE0VjN6bTEyIDEySDVWNWgxMHoiLz4mI3hhOwk8cGF0aCBjbGFzcz0ic3QxIiBkPSJNMTAgMTBsLTMgM2g2eiIvPiYjeGE7CTxwYXRoIGNsYXNzPSJzdDAiIGQ9Ik0xMyA3bC0zIDMgMyAzeiIvPiYjeGE7PC9zdmc+;" vertex="1" parent="iLUi43Cnm-gBH9znqvVO-114">
          <mxGeometry width="30" height="30" relative="1" as="geometry">
            <mxPoint x="15" y="15" as="offset" />
          </mxGeometry>
        </mxCell>
        <mxCell id="iLUi43Cnm-gBH9znqvVO-144" style="edgeStyle=orthogonalEdgeStyle;rounded=0;orthogonalLoop=1;jettySize=auto;html=1;entryX=0;entryY=0.5;entryDx=0;entryDy=0;startArrow=classicThin;startFill=1;strokeWidth=2;endArrow=classicThin;endFill=1;fillColor=#dae8fc;strokeColor=#6c8ebf;" edge="1" parent="1" source="iLUi43Cnm-gBH9znqvVO-121" target="iLUi43Cnm-gBH9znqvVO-114">
          <mxGeometry relative="1" as="geometry" />
        </mxCell>
        <mxCell id="iLUi43Cnm-gBH9znqvVO-121" value="" style="strokeColor=#dddddd;shadow=1;strokeWidth=1;rounded=1;absoluteArcSize=1;arcSize=2;" vertex="1" parent="1">
          <mxGeometry x="-400" y="440" width="180" height="60" as="geometry" />
        </mxCell>
        <mxCell id="iLUi43Cnm-gBH9znqvVO-122" value="&lt;font color=&quot;#000000&quot;&gt;Modulo micro-SD&lt;/font&gt;" style="editableCssRules=.*;html=1;fontColor=#999999;shape=image;verticalLabelPosition=middle;labelBackgroundColor=#ffffff;verticalAlign=middle;labelPosition=right;align=left;spacingLeft=20;part=1;points=[];imageAspect=0;image=data:image/svg+xml,PHN2ZyB4bWxucz0iaHR0cDovL3d3dy53My5vcmcvMjAwMC9zdmciIHhtbG5zOnY9Imh0dHBzOi8vdmVjdGEuaW8vbmFubyIgd2lkdGg9IjIwIiBoZWlnaHQ9IjE2IiB2aWV3Qm94PSIwIDAgMjAgMTYiPiYjeGE7CTxzdHlsZSB0eXBlPSJ0ZXh0L2NzcyI+JiN4YTsJLnN0MHtmaWxsOiM0Mjg1ZjQ7fSYjeGE7CS5zdDF7ZmlsbDojNjY5ZGY2O30mI3hhOwkuc3Qye2ZpbGw6I2FlY2JmYTt9JiN4YTsJPC9zdHlsZT4mI3hhOwk8cGF0aCBjbGFzcz0ic3QwIiBkPSJNMTIgMTBIOEw2IDhoOHoiLz4mI3hhOwk8cGF0aCBjbGFzcz0ic3QyIiBkPSJNMTYgMkg0bDEtMmgxMHptMyAzSDFsMS0yaDE2eiIvPiYjeGE7CTxwYXRoIGNsYXNzPSJzdDEiIGQ9Ik0xNCA3bC0yIDNIOEw2IDdIMHY5aDIwVjd6Ii8+JiN4YTs8L3N2Zz4=;" vertex="1" parent="iLUi43Cnm-gBH9znqvVO-121">
          <mxGeometry width="30" height="24" relative="1" as="geometry">
            <mxPoint x="15" y="18" as="offset" />
          </mxGeometry>
        </mxCell>
        <mxCell id="iLUi43Cnm-gBH9znqvVO-145" style="edgeStyle=orthogonalEdgeStyle;rounded=0;orthogonalLoop=1;jettySize=auto;html=1;exitX=1;exitY=0.5;exitDx=0;exitDy=0;entryX=0;entryY=0.5;entryDx=0;entryDy=0;startArrow=classicThin;startFill=1;fillColor=#dae8fc;strokeColor=#6c8ebf;endArrow=classicThin;endFill=1;strokeWidth=2;" edge="1" parent="1" source="iLUi43Cnm-gBH9znqvVO-132" target="iLUi43Cnm-gBH9znqvVO-114">
          <mxGeometry relative="1" as="geometry" />
        </mxCell>
        <mxCell id="iLUi43Cnm-gBH9znqvVO-132" value="" style="strokeColor=#dddddd;shadow=1;strokeWidth=1;rounded=1;absoluteArcSize=1;arcSize=2;" vertex="1" parent="1">
          <mxGeometry x="-400" y="520" width="180" height="60" as="geometry" />
        </mxCell>
        <mxCell id="iLUi43Cnm-gBH9znqvVO-133" value="&lt;font color=&quot;#000000&quot;&gt;Modulo RF&lt;/font&gt;&lt;br&gt;Ricetrasmettitore" style="editableCssRules=.*;html=1;fontColor=#999999;shape=image;verticalLabelPosition=middle;labelBackgroundColor=#ffffff;verticalAlign=middle;labelPosition=right;align=left;spacingLeft=20;part=1;points=[];imageAspect=0;image=data:image/svg+xml,PHN2ZyB4bWxucz0iaHR0cDovL3d3dy53My5vcmcvMjAwMC9zdmciIHhtbG5zOnY9Imh0dHBzOi8vdmVjdGEuaW8vbmFubyIgd2lkdGg9IjIwLjAwMDQ2MzQ4NTcxNzc3MyIgaGVpZ2h0PSIxNi42MzE1MTU1MDI5Mjk2ODgiIHZpZXdCb3g9IjAgMC4wMDAyNDE0MDk2NTI1MTcxNzcxNiAyMC4wMDA0NjM0ODU3MTc3NzMgMTYuNjMxNTE1NTAyOTI5Njg4Ij4mI3hhOwk8c3R5bGUgdHlwZT0idGV4dC9jc3MiPiYjeGE7CS5zdDB7ZmlsbDojNjY5ZGY2O30mI3hhOwkuc3Qxe2ZpbGw6IzQyODVmNDt9JiN4YTsJPC9zdHlsZT4mI3hhOwk8cGF0aCBjbGFzcz0ic3QwIiBkPSJNLjAxIDMuMzA2aDYuNjR2MS42N0guMDF6bS0uMDEgMTBoMCA5LjE3di0xLjY3SDB6bTAtNC4xN2g0LjE4SDEwbC0xLjY3LTEuNjZIMi41MSAweiIvPiYjeGE7CTxwYXRoIGNsYXNzPSJzdDEiIGQ9Ik0xMCA1LjM4NmEuNDIuNDIgMCAwIDEgLjQyLS4zNi40MS40MSAwIDAgMSAuNDEuMzZ2OS4xOGEyLjA5IDIuMDkgMCAwIDAgMi42MSAyIDIuMTYgMi4xNiAwIDAgMCAxLjU2LTIuMTFWMi4wNjZhLjQuNCAwIDAgMSAuMTktLjQuNDEuNDEgMCAwIDEgLjQ1IDAgLjQuNCAwIDAgMSAuMTkuNHY5LjE2YTIuMDcgMi4wNyAwIDAgMCAuODEgMS42NCAyIDIgMCAwIDAgMS44LjM3IDIuMTYgMi4xNiAwIDAgMCAxLjU2LTIuMTJ2LTIuOGgtMS42N3YyLjkyYS40LjQgMCAwIDEtLjE5LjQuNDEuNDEgMCAwIDEtLjQ1IDAgLjQuNCAwIDAgMS0uMTktLjR2LTkuMTdhMi4wOSAyLjA5IDAgMCAwLTIuNjEtMiAyLjE2IDIuMTYgMCAwIDAtMS41NiAyLjEzdjEyLjM3YS40LjQgMCAwIDEtLjE5LjQuNDEuNDEgMCAwIDEtLjQ1IDAgLjQuNCAwIDAgMS0uMTktLjR2LTkuMTdhMi4wNyAyLjA3IDAgMCAwLTQuMTEtLjM2IDIuNCAyLjQgMCAwIDAtLjA1LjQ2djJMMTAgOS4xMzZ6Ii8+JiN4YTs8L3N2Zz4=;" vertex="1" parent="iLUi43Cnm-gBH9znqvVO-132">
          <mxGeometry width="35" height="30" relative="1" as="geometry">
            <mxPoint x="19" y="15" as="offset" />
          </mxGeometry>
        </mxCell>
        <mxCell id="iLUi43Cnm-gBH9znqvVO-146" style="edgeStyle=orthogonalEdgeStyle;rounded=0;orthogonalLoop=1;jettySize=auto;html=1;exitX=0;exitY=0.5;exitDx=0;exitDy=0;entryX=1;entryY=0.5;entryDx=0;entryDy=0;startArrow=classicThin;startFill=1;fillColor=#dae8fc;strokeColor=#6c8ebf;strokeWidth=2;endArrow=classicThin;endFill=1;" edge="1" parent="1" source="iLUi43Cnm-gBH9znqvVO-136" target="iLUi43Cnm-gBH9znqvVO-114">
          <mxGeometry relative="1" as="geometry" />
        </mxCell>
        <mxCell id="iLUi43Cnm-gBH9znqvVO-136" value="Tubo di Pitot" style="dashed=0;strokeColor=#dddddd;shadow=1;strokeWidth=1;labelPosition=center;verticalLabelPosition=middle;align=center;verticalAlign=middle;spacingLeft=5;fontSize=12;whiteSpace=wrap;html=1;" vertex="1" parent="1">
          <mxGeometry x="210" y="464" width="100" height="44" as="geometry" />
        </mxCell>
        <mxCell id="iLUi43Cnm-gBH9znqvVO-151" style="edgeStyle=orthogonalEdgeStyle;rounded=0;orthogonalLoop=1;jettySize=auto;html=1;exitX=0;exitY=0.5;exitDx=0;exitDy=0;entryX=1;entryY=0.5;entryDx=0;entryDy=0;startArrow=classicThin;startFill=1;fillColor=#dae8fc;strokeColor=#6c8ebf;strokeWidth=2;endArrow=classicThin;endFill=1;" edge="1" parent="1" source="iLUi43Cnm-gBH9znqvVO-139" target="iLUi43Cnm-gBH9znqvVO-114">
          <mxGeometry relative="1" as="geometry" />
        </mxCell>
        <mxCell id="iLUi43Cnm-gBH9znqvVO-139" value="IMU" style="dashed=0;strokeColor=#dddddd;shadow=1;strokeWidth=1;labelPosition=center;verticalLabelPosition=middle;align=center;verticalAlign=middle;spacingLeft=5;fontSize=12;whiteSpace=wrap;html=1;" vertex="1" parent="1">
          <mxGeometry x="210" y="524" width="100" height="44" as="geometry" />
        </mxCell>
        <mxCell id="iLUi43Cnm-gBH9znqvVO-160" style="edgeStyle=orthogonalEdgeStyle;rounded=0;orthogonalLoop=1;jettySize=auto;html=1;exitX=0;exitY=0.5;exitDx=0;exitDy=0;entryX=0.75;entryY=0;entryDx=0;entryDy=0;strokeWidth=2;fillColor=#dae8fc;strokeColor=#6c8ebf;endArrow=classicThin;endFill=1;" edge="1" parent="1" source="iLUi43Cnm-gBH9znqvVO-140" target="iLUi43Cnm-gBH9znqvVO-114">
          <mxGeometry relative="1" as="geometry" />
        </mxCell>
        <mxCell id="iLUi43Cnm-gBH9znqvVO-140" value="Voltmetro&lt;br&gt;batterie" style="dashed=0;strokeColor=#dddddd;shadow=1;strokeWidth=1;labelPosition=center;verticalLabelPosition=middle;align=center;verticalAlign=middle;spacingLeft=5;fontSize=12;whiteSpace=wrap;html=1;" vertex="1" parent="1">
          <mxGeometry x="210" y="400" width="100" height="44" as="geometry" />
        </mxCell>
        <mxCell id="iLUi43Cnm-gBH9znqvVO-161" style="edgeStyle=orthogonalEdgeStyle;rounded=0;orthogonalLoop=1;jettySize=auto;html=1;exitX=0;exitY=0.5;exitDx=0;exitDy=0;entryX=0.75;entryY=0;entryDx=0;entryDy=0;strokeWidth=2;fillColor=#dae8fc;strokeColor=#6c8ebf;endArrow=classicThin;endFill=1;" edge="1" parent="1" source="iLUi43Cnm-gBH9znqvVO-141" target="iLUi43Cnm-gBH9znqvVO-114">
          <mxGeometry relative="1" as="geometry" />
        </mxCell>
        <mxCell id="iLUi43Cnm-gBH9znqvVO-141" value="Amperometro&lt;br&gt;batterie" style="dashed=0;strokeColor=#dddddd;shadow=1;strokeWidth=1;labelPosition=center;verticalLabelPosition=middle;align=center;verticalAlign=middle;spacingLeft=5;fontSize=12;whiteSpace=wrap;html=1;" vertex="1" parent="1">
          <mxGeometry x="210" y="334" width="100" height="44" as="geometry" />
        </mxCell>
        <mxCell id="iLUi43Cnm-gBH9znqvVO-152" style="edgeStyle=orthogonalEdgeStyle;rounded=0;orthogonalLoop=1;jettySize=auto;html=1;exitX=0;exitY=0.5;exitDx=0;exitDy=0;entryX=0.75;entryY=1;entryDx=0;entryDy=0;startArrow=classicThin;startFill=1;fillColor=#dae8fc;strokeColor=#6c8ebf;strokeWidth=2;endArrow=classicThin;endFill=1;" edge="1" parent="1" source="iLUi43Cnm-gBH9znqvVO-142" target="iLUi43Cnm-gBH9znqvVO-114">
          <mxGeometry relative="1" as="geometry" />
        </mxCell>
        <mxCell id="iLUi43Cnm-gBH9znqvVO-142" value="Modulo GNSS" style="dashed=0;strokeColor=#dddddd;shadow=1;strokeWidth=1;labelPosition=center;verticalLabelPosition=middle;align=center;verticalAlign=middle;spacingLeft=5;fontSize=12;whiteSpace=wrap;html=1;" vertex="1" parent="1">
          <mxGeometry x="210" y="582" width="100" height="44" as="geometry" />
        </mxCell>
        <mxCell id="iLUi43Cnm-gBH9znqvVO-153" style="edgeStyle=orthogonalEdgeStyle;rounded=0;orthogonalLoop=1;jettySize=auto;html=1;exitX=0;exitY=0.5;exitDx=0;exitDy=0;entryX=0.5;entryY=1;entryDx=0;entryDy=0;strokeWidth=2;fillColor=#dae8fc;strokeColor=#6c8ebf;endArrow=classicThin;endFill=1;" edge="1" parent="1" source="iLUi43Cnm-gBH9znqvVO-143" target="iLUi43Cnm-gBH9znqvVO-114">
          <mxGeometry relative="1" as="geometry" />
        </mxCell>
        <mxCell id="iLUi43Cnm-gBH9znqvVO-143" value="Sensore di prossimità" style="dashed=0;strokeColor=#dddddd;shadow=1;strokeWidth=1;labelPosition=center;verticalLabelPosition=middle;align=center;verticalAlign=middle;spacingLeft=5;fontSize=12;whiteSpace=wrap;html=1;" vertex="1" parent="1">
          <mxGeometry x="210" y="642" width="100" height="44" as="geometry" />
        </mxCell>
      </root>
    </mxGraphModel>
  </diagram>
</mxfile>
